<svg width="21" height="20" viewBox="0 0 21 20" fill="none" xmlns="http://www.w3.org/2000/svg">
<g id="vuesax/outline/calendar">
<g id="calendar">
<path id="Vector" d="M7.3678 4.79163C7.02613 4.79163 6.7428 4.50829 6.7428 4.16663V1.66663C6.7428 1.32496 7.02613 1.04163 7.3678 1.04163C7.70946 1.04163 7.9928 1.32496 7.9928 1.66663V4.16663C7.9928 4.50829 7.70946 4.79163 7.3678 4.79163Z" fill="#292D32"/>
<path id="Vector_2" d="M14.0345 4.79163C13.6929 4.79163 13.4095 4.50829 13.4095 4.16663V1.66663C13.4095 1.32496 13.6929 1.04163 14.0345 1.04163C14.3762 1.04163 14.6595 1.32496 14.6595 1.66663V4.16663C14.6595 4.50829 14.3762 4.79163 14.0345 4.79163Z" fill="#292D32"/>
<path id="Vector_3" d="M7.78451 12.0833C7.67617 12.0833 7.56784 12.0583 7.46784 12.0167C7.3595 11.975 7.27617 11.9166 7.19284 11.8416C7.04284 11.6833 6.95117 11.475 6.95117 11.25C6.95117 11.1416 6.97617 11.0333 7.01784 10.9333C7.05951 10.8333 7.11784 10.7416 7.19284 10.6583C7.27617 10.5833 7.3595 10.525 7.46784 10.4833C7.76784 10.3583 8.14284 10.425 8.37617 10.6583C8.52617 10.8166 8.61784 11.0333 8.61784 11.25C8.61784 11.3 8.6095 11.3583 8.60117 11.4167C8.59284 11.4667 8.57617 11.5166 8.55117 11.5666C8.5345 11.6166 8.50951 11.6666 8.47617 11.7166C8.45117 11.7583 8.4095 11.8 8.37617 11.8416C8.21784 11.9916 8.00117 12.0833 7.78451 12.0833Z" fill="#292D32"/>
<path id="Vector_4" d="M10.7011 12.0833C10.5928 12.0833 10.4845 12.0584 10.3845 12.0167C10.2761 11.975 10.1928 11.9167 10.1095 11.8417C9.95947 11.6833 9.8678 11.475 9.8678 11.25C9.8678 11.1417 9.8928 11.0333 9.93447 10.9333C9.97613 10.8333 10.0345 10.7417 10.1095 10.6584C10.1928 10.5834 10.2761 10.525 10.3845 10.4833C10.6845 10.35 11.0595 10.425 11.2928 10.6584C11.4428 10.8167 11.5345 11.0333 11.5345 11.25C11.5345 11.3 11.5261 11.3584 11.5178 11.4167C11.5095 11.4667 11.4928 11.5167 11.4678 11.5667C11.4511 11.6167 11.4261 11.6667 11.3928 11.7167C11.3678 11.7583 11.3261 11.8 11.2928 11.8417C11.1345 11.9917 10.9178 12.0833 10.7011 12.0833Z" fill="#292D32"/>
<path id="Vector_5" d="M13.6179 12.0833C13.5095 12.0833 13.4012 12.0584 13.3012 12.0167C13.1929 11.975 13.1095 11.9167 13.0262 11.8417C12.9929 11.8 12.9595 11.7583 12.9262 11.7167C12.8929 11.6667 12.8679 11.6167 12.8512 11.5667C12.8262 11.5167 12.8095 11.4667 12.8012 11.4167C12.7929 11.3584 12.7845 11.3 12.7845 11.25C12.7845 11.0333 12.8762 10.8167 13.0262 10.6584C13.1095 10.5834 13.1929 10.525 13.3012 10.4833C13.6095 10.35 13.9762 10.425 14.2095 10.6584C14.3595 10.8167 14.4512 11.0333 14.4512 11.25C14.4512 11.3 14.4429 11.3584 14.4345 11.4167C14.4262 11.4667 14.4095 11.5167 14.3845 11.5667C14.3679 11.6167 14.3429 11.6667 14.3095 11.7167C14.2845 11.7583 14.2429 11.8 14.2095 11.8417C14.0512 11.9917 13.8345 12.0833 13.6179 12.0833Z" fill="#292D32"/>
<path id="Vector_6" d="M7.78451 15C7.67617 15 7.56784 14.975 7.46784 14.9333C7.36784 14.8917 7.27617 14.8333 7.19284 14.7583C7.04284 14.6 6.95117 14.3833 6.95117 14.1667C6.95117 14.0583 6.97617 13.95 7.01784 13.85C7.05951 13.7417 7.11784 13.65 7.19284 13.575C7.50117 13.2667 8.06784 13.2667 8.37617 13.575C8.52617 13.7333 8.61784 13.95 8.61784 14.1667C8.61784 14.3833 8.52617 14.6 8.37617 14.7583C8.21784 14.9083 8.00117 15 7.78451 15Z" fill="#292D32"/>
<path id="Vector_7" d="M10.7011 15C10.4845 15 10.2678 14.9083 10.1095 14.7583C9.95947 14.6 9.8678 14.3833 9.8678 14.1667C9.8678 14.0583 9.8928 13.95 9.93447 13.85C9.97613 13.7417 10.0345 13.65 10.1095 13.575C10.4178 13.2667 10.9845 13.2667 11.2928 13.575C11.3678 13.65 11.4261 13.7417 11.4678 13.85C11.5095 13.95 11.5345 14.0583 11.5345 14.1667C11.5345 14.3833 11.4428 14.6 11.2928 14.7583C11.1345 14.9083 10.9178 15 10.7011 15Z" fill="#292D32"/>
<path id="Vector_8" d="M13.6179 15C13.4012 15 13.1845 14.9084 13.0262 14.7584C12.9512 14.6834 12.8929 14.5917 12.8512 14.4834C12.8095 14.3834 12.7845 14.275 12.7845 14.1667C12.7845 14.0584 12.8095 13.95 12.8512 13.85C12.8929 13.7417 12.9512 13.6501 13.0262 13.5751C13.2179 13.3834 13.5095 13.2917 13.7762 13.35C13.8345 13.3584 13.8845 13.375 13.9345 13.4C13.9845 13.4167 14.0345 13.4417 14.0845 13.4751C14.1262 13.5001 14.1679 13.5417 14.2095 13.5751C14.3595 13.7334 14.4512 13.95 14.4512 14.1667C14.4512 14.3834 14.3595 14.6 14.2095 14.7584C14.0512 14.9084 13.8345 15 13.6179 15Z" fill="#292D32"/>
<path id="Vector_9" d="M17.7845 8.19995H3.6178C3.27613 8.19995 2.9928 7.91662 2.9928 7.57495C2.9928 7.23328 3.27613 6.94995 3.6178 6.94995H17.7845C18.1261 6.94995 18.4095 7.23328 18.4095 7.57495C18.4095 7.91662 18.1261 8.19995 17.7845 8.19995Z" fill="#292D32"/>
<path id="Vector_10" d="M14.0345 18.9583H7.36784C4.32617 18.9583 2.57617 17.2083 2.57617 14.1666V7.08329C2.57617 4.04163 4.32617 2.29163 7.36784 2.29163H14.0345C17.0762 2.29163 18.8262 4.04163 18.8262 7.08329V14.1666C18.8262 17.2083 17.0762 18.9583 14.0345 18.9583ZM7.36784 3.54163C4.98451 3.54163 3.82617 4.69996 3.82617 7.08329V14.1666C3.82617 16.55 4.98451 17.7083 7.36784 17.7083H14.0345C16.4178 17.7083 17.5762 16.55 17.5762 14.1666V7.08329C17.5762 4.69996 16.4178 3.54163 14.0345 3.54163H7.36784Z" fill="#292D32"/>
</g>
</g>
</svg>
