<svg width="21" height="20" viewBox="0 0 21 20" fill="none" xmlns="http://www.w3.org/2000/svg">
<g id="vuesax/outline/location">
<g id="location">
<path id="Vector" d="M10.7012 11.8084C8.9262 11.8084 7.4762 10.3667 7.4762 8.58337C7.4762 6.80003 8.9262 5.3667 10.7012 5.3667C12.4762 5.3667 13.9262 6.80837 13.9262 8.5917C13.9262 10.375 12.4762 11.8084 10.7012 11.8084ZM10.7012 6.6167C9.61786 6.6167 8.7262 7.50003 8.7262 8.5917C8.7262 9.68337 9.60953 10.5667 10.7012 10.5667C11.7929 10.5667 12.6762 9.68337 12.6762 8.5917C12.6762 7.50003 11.7845 6.6167 10.7012 6.6167Z" fill="#0E0E0E"/>
<path id="Vector_2" d="M10.7012 18.9666C9.46786 18.9666 8.2262 18.5 7.25953 17.575C4.8012 15.2083 2.08453 11.4333 3.10953 6.94163C4.03453 2.86663 7.59286 1.04163 10.7012 1.04163C10.7012 1.04163 10.7012 1.04163 10.7095 1.04163C13.8179 1.04163 17.3762 2.86663 18.3012 6.94996C19.3179 11.4416 16.6012 15.2083 14.1429 17.575C13.1762 18.5 11.9345 18.9666 10.7012 18.9666ZM10.7012 2.29163C8.2762 2.29163 5.15953 3.58329 4.33453 7.21663C3.43453 11.1416 5.9012 14.525 8.13453 16.6666C9.5762 18.0583 11.8345 18.0583 13.2762 16.6666C15.5012 14.525 17.9679 11.1416 17.0845 7.21663C16.2512 3.58329 13.1262 2.29163 10.7012 2.29163Z" fill="#0E0E0E"/>
</g>
</g>
</svg>
